<svg width="55" height="52" viewBox="0 0 55 52" fill="none" xmlns="http://www.w3.org/2000/svg">
<g clip-path="url(#clip0_4_17)">
<g clip-path="url(#clip1_4_17)">
<g clip-path="url(#clip2_4_17)">
<path d="M0.00359479 50.9737L6.07612 50.9229V41.4012L0.00195312 44.6845L0.00359479 50.9737Z" fill="#FF8F27"/>
<path d="M7.2251 50.9737H17.0751V26.1846L12.3143 28.4829V40.1387H10.8368V31.1096L7.2251 32.9154V41.4521V45.8846V50.9737Z" fill="#FF8F27"/>
<path d="M28.813 14.9392L25.5296 16.4167V19.7V24.7892L19.6196 26.4308V51.22H29.4696V0L28.813 0.328333" fill="#FF8F27"/>
<path d="M32.6709 5.66376L33.4917 6.15626L33.8201 18.6329L38.9092 22.0804V30.4529L41.0434 32.4229V50.9738H32.6709V5.66376Z" fill="#FF8F27"/>
<path d="M54.9979 50.9738H43.6704V30.4529L52.0429 36.0346V42.4371L54.9979 44.7354V50.9738Z" fill="#FF8F27"/>
<path d="M3.94206 46.7054H2.13623V48.5113H3.94206V46.7054Z" fill="white"/>
<path d="M11.1652 42.7654H9.35938V44.5713H11.1652V42.7654Z" fill="white"/>
<path d="M14.9411 42.7654H13.1353V44.5713H14.9411V42.7654Z" fill="white"/>
<path d="M14.9411 46.5413H13.1353V48.3471H14.9411V46.5413Z" fill="white"/>
<path d="M23.6422 27.4979H22.0005V29.3038H23.6422V27.4979Z" fill="white"/>
<path d="M23.6422 31.2737H22.0005V33.0796H23.6422V31.2737Z" fill="white"/>
<path d="M27.0894 31.2737H25.4478V33.0796H27.0894V31.2737Z" fill="white"/>
<path d="M27.0894 34.8854H25.4478V36.6913H27.0894V34.8854Z" fill="white"/>
<path d="M27.0894 38.4971H25.4478V40.3029H27.0894V38.4971Z" fill="white"/>
<path d="M27.0894 45.8846H25.4478V47.6904H27.0894V45.8846Z" fill="white"/>
<path d="M23.6422 38.4971H22.0005V40.3029H23.6422V38.4971Z" fill="white"/>
<path d="M23.6422 45.8846H22.0005V47.6904H23.6422V45.8846Z" fill="white"/>
<path d="M23.6422 42.1088H22.0005V43.9146H23.6422V42.1088Z" fill="white"/>
<path d="M35.9543 29.1396H34.1484V30.9454H35.9543V29.1396Z" fill="white"/>
<path d="M35.9543 32.7513H34.1484V34.5571H35.9543V32.7513Z" fill="white"/>
<path d="M35.9543 40.1387H34.1484V41.9446H35.9543V40.1387Z" fill="white"/>
<path d="M35.9543 43.9146H34.1484V45.7204H35.9543V43.9146Z" fill="white"/>
<path d="M39.4015 36.3629H37.5957V38.1687H39.4015V36.3629Z" fill="white"/>
<path d="M39.4015 40.1387H37.5957V41.9446H39.4015V40.1387Z" fill="white"/>
<path d="M39.4015 43.9146H37.5957V45.7204H39.4015V43.9146Z" fill="white"/>
<path d="M47.446 36.1987H45.6401V38.0046H47.446V36.1987Z" fill="white"/>
<path d="M47.446 43.4221H45.6401V45.2279H47.446V43.4221Z" fill="white"/>
<path d="M50.237 39.8104H48.4312V41.6163H50.237V39.8104Z" fill="white"/>
</g>
</g>
</g>
<defs>
<clipPath id="clip0_4_17">
<rect width="55" height="51.22" fill="white"/>
</clipPath>
<clipPath id="clip1_4_17">
<rect width="55" height="51.22" fill="white"/>
</clipPath>
<clipPath id="clip2_4_17">
<rect width="54.9958" height="51.22" fill="white" transform="translate(0.00195312)"/>
</clipPath>
</defs>
</svg>
